name p02_s_01_labelled_grf.mot
datacolumns 46
datarows 8
range 0.264000 0.267500
endheader
time	1_ground_force_vx	1_ground_force_vy	1_ground_force_vz	1_ground_force_px	1_ground_force_py	1_ground_force_pz	1_ground_torque_x	1_ground_torque_y	1_ground_torque_z	2_ground_force_vx	2_ground_force_vy	2_ground_force_vz	2_ground_force_px	2_ground_force_py	2_ground_force_pz	2_ground_torque_x	2_ground_torque_y	2_ground_torque_z	3_ground_force_vx	3_ground_force_vy	3_ground_force_vz	3_ground_force_px	3_ground_force_py	3_ground_force_pz	3_ground_torque_x	3_ground_torque_y	3_ground_torque_z	4_ground_force_vx	4_ground_force_vy	4_ground_force_vz	4_ground_force_px	4_ground_force_py	4_ground_force_pz	4_ground_torque_x	4_ground_torque_y	4_ground_torque_z	5_ground_force_vx	5_ground_force_vy	5_ground_force_vz	5_ground_force_px	5_ground_force_py	5_ground_force_pz	5_ground_torque_x	5_ground_torque_y	5_ground_torque_z
            0.264000	            0.005532	            0.438276	            0.128358	            1.685507	           -0.014676	            0.536362	           -0.219563	            0.073513	            0.507616	           -0.037584	            1.709209	           -0.180734	            0.109736	           -0.000126	            0.234430	            0.086742	            0.033363	           -0.589839	           -0.206831	            0.002453	           -0.055144	           -0.457621	            0.004852	            0.303465	            0.139878	           -0.042710	           -0.222151	            0.441783	           -0.097449	            0.308075	           -0.917105	            0.009447	            0.559826	           -0.220983	            0.363352	           -0.402761	          388.061027	          531.035843	           37.439780	           -2.350851	            0.019607	            0.157804	            0.501272	            0.685958	            0.048362
            0.264500	            0.123342	            0.281169	           -0.232956	            1.685507	           -0.014676	            0.536362	           -0.163506	            0.028437	           -0.202988	           -0.203146	            0.927500	           -0.224889	            0.109736	           -0.000126	            0.234430	            0.180707	           -0.046785	            0.222529	           -0.073647	            1.248292	           -0.094031	           -0.457621	            0.004852	            0.303465	            0.078043	            0.047496	           -0.431764	            0.401685	           -0.096541	            0.350750	           -0.917105	            0.009447	            0.559826	            0.038628	            0.076817	           -0.293915	          381.846903	          517.600105	           30.184669	           -2.351449	            0.019608	            0.157626	            0.174697	            0.236805	            0.013810
            0.265000	            0.033368	           -0.666008	            0.007888	            1.685507	           -0.014676	            0.536362	           -0.113245	            0.044462	            0.013376	            0.003927	            2.020999	           -0.058503	            0.109736	           -0.000126	            0.234430	            0.272959	            0.057508	           -0.147476	           -0.402109	            0.316073	           -0.054595	           -0.457621	            0.004852	            0.303465	           -0.119356	            0.118782	           -0.014941	            0.563163	            0.057436	            0.270674	           -0.917105	            0.009447	            0.559826	            0.009435	            0.251529	            0.434159	          373.673906	          506.523174	           24.938511	           -2.350139	            0.019606	            0.156923	            0.022080	            0.029930	            0.001474
            0.265500	            0.109760	           -0.981117	            0.007902	            1.685507	           -0.014676	            0.536362	            0.018940	            0.009434	            0.019056	           -0.173984	           -0.486563	           -0.231849	            0.109736	           -0.000126	            0.234430	           -0.175486	            0.095962	           -0.378711	            0.030246	           -0.157051	            0.103514	           -0.457621	            0.004852	            0.303465	           -0.032765	            0.053790	           -0.150806	            0.404185	            0.217691	            0.428598	           -0.917105	            0.009447	            0.559826	           -0.098372	            0.312991	            0.036699	          367.443851	          495.904839	           21.842148	           -2.349858	            0.019605	            0.157062	           -0.268667	           -0.362595	           -0.015971
            0.266000	            0.007993	            0.758593	            0.007594	            1.685507	           -0.014676	            0.536362	           -0.079342	            0.046899	           -0.376159	            0.104665	           -0.485607	           -0.069098	            0.109736	           -0.000126	            0.234430	            0.334288	           -0.015104	            0.298966	            0.033301	            0.156522	           -0.135236	           -0.457621	            0.004852	            0.303465	            0.049313	            0.063757	            0.176915	            0.401672	           -0.098502	            0.349540	           -0.917105	            0.009447	            0.559826	           -0.160255	            0.280273	            0.147179	          363.725812	          482.940807	           16.935862	           -2.348408	            0.019601	            0.158078	           -0.447692	           -0.594428	           -0.020846
            0.266500	           -0.208836	           -0.821084	            0.048377	            1.685507	           -0.014676	            0.536362	           -0.083175	            0.001811	           -0.058123	            0.236631	            1.238195	            0.098720	            0.109736	           -0.000126	            0.234430	            0.234295	            0.049210	           -0.735754	           -0.120088	            0.625471	            0.064706	           -0.457621	            0.004852	            0.303465	            0.263772	            0.003624	           -0.434665	            0.285329	            0.218074	            0.107999	           -0.917105	            0.009447	            0.559826	            0.054536	            0.342821	            0.360380	          357.982711	          466.368571	           10.798836	           -2.349132	            0.019603	            0.157473	           -0.151115	           -0.196868	           -0.004559
            0.267000	           -0.168136	           -0.665195	           -0.071683	            1.685507	           -0.014676	            0.536362	           -0.242680	           -0.114278	           -0.109584	           -0.164033	            0.923740	           -0.106181	            0.109736	           -0.000126	            0.234430	           -0.218531	            0.064133	           -0.104770	           -0.231054	            1.407455	           -0.173038	           -0.457621	            0.004852	            0.303465	           -0.079827	           -0.018468	            0.268167	            0.392264	           -1.201683	            0.270891	           -0.917105	            0.009447	            0.559826	            0.144498	            0.316218	           -0.127863	          350.131553	          453.566812	            7.989258	           -2.347790	            0.019600	            0.157106	           -0.198091	           -0.256611	           -0.004520
            0.267500	           -0.077414	            0.287062	           -0.072421	            1.685507	           -0.014676	            0.536362	            0.091170	            0.000200	           -0.215396	           -0.063289	           -1.580138	           -0.114742	            0.109736	           -0.000126	            0.234430	           -0.091072	           -0.070308	            0.231668	            0.203730	            1.088657	            0.343838	           -0.457621	            0.004852	            0.303465	           -0.245865	           -0.077909	            0.078634	            0.599247	           -0.415592	            0.190776	           -0.917105	            0.009447	            0.559826	            0.115201	            0.275098	            0.161110	          342.992895	          440.442248	            5.936054	           -2.348066	            0.019601	            0.157304	           -0.127494	           -0.163717	           -0.002206
